<?xml version="1.0" standalone="no"?>
<!DOCTYPE svg PUBLIC "-//W3C//DTD SVG 1.1//EN"
  "http://www.w3.org/Graphics/SVG/1.1/DTD/svg11.dtd">
<svg width="103mm" height="160mm" viewBox="-43 -90 103 160" xmlns="http://www.w3.org/2000/svg" version="1.1">
	<title>svgOutput</title>
	<desc>made with tinkercad</desc>
<path d="M -39 -89 L -39 -88.94639587402344 L -5.074999809265137 -88.94639587402344 L 58 -88.94639587402344 L 58 -23.950523376464844 L -5.074999809265137 -23.950523376464844 L -38 -23.950523376464844 L -41 -23.950523376464844 L -42 -23.950523376464844 L -42 -88.94639587402344 L -42 -89 L -39 -89 M -41 69 L -41 64 L -41 63.000999450683594 L -41 58.000999450683594 L -41 47.25 L -41 46.25 L -41 42 L -41 30 L -41 29.5 L -41 28.575000762939453 L -41 27.899999618530273 L -41 24.899999618530273 L -41 12 L -41 10 L -41 8 L -41 7 L -41 1 L -38 1 L -5.074999809265137 1 L 58 1 L 59 1 L 59 7 L 59 8 L 59 10 L 59 12 L 59 24.899999618530273 L 59 28.575000762939453 L 59 29.5 L 59 30 L 59 42 L 59 46.25 L 59 47.25 L 59 58.000999450683594 L 59 61.90299987792969 L 59 63.000999450683594 L 59 64 L 59 69 L -38 69 L -38.00299835205078 69 L -41 69 M -10.77400016784668 12.87600040435791 L -10.5 12.902999877929688 L -10.22599983215332 12.87600040435791 L -9.963000297546387 12.795999526977539 L -9.720999717712402 12.666000366210938 L -9.508000373840332 12.491999626159668 L -9.341352462768555 12.288000106811523 L -9.333999633789062 12.279000282287598 L -9.204000473022461 12.036999702453613 L -9.192745208740234 12 L -9.12399959564209 11.77400016784668 L -9.097000122070312 11.5 L -9.12399959564209 11.22599983215332 L -9.204000473022461 10.963000297546387 L -9.333999633789062 10.720999717712402 L -9.508000373840332 10.508000373840332 L -9.720999717712402 10.333999633789062 L -9.963000297546387 10.204000473022461 L -10.22599983215332 10.12399959564209 L -10.239999771118164 10.122671127319336 L -10.5 10.097999572753906 L -10.77400016784668 10.12399959564209 L -11.036999702453613 10.204000473022461 L -11.279000282287598 10.333999633789062 L -11.491999626159668 10.508000373840332 L -11.666000366210938 10.720999717712402 L -11.795999526977539 10.963000297546387 L -11.87600040435791 11.22599983215332 L -11.902000427246094 11.5 L -11.87600040435791 11.77400016784668 L -11.807254791259766 12 L -11.795999526977539 12.036999702453613 L -11.666000366210938 12.279000282287598 L -11.658647537231445 12.288000106811523 L -11.491999626159668 12.491999626159668 L -11.279000282287598 12.666000366210938 L -11.036999702453613 12.795999526977539 L -10.77400016784668 12.87600040435791 M -10.77400016784668 59.124000549316406 L -11.036999702453613 59.20399856567383 L -11.279000282287598 59.33399963378906 L -11.491999626159668 59.507999420166016 L -11.666000366210938 59.72100067138672 L -11.795999526977539 59.9630012512207 L -11.87600040435791 60.22600173950195 L -11.902000427246094 60.5 L -11.87600040435791 60.77399826049805 L -11.795999526977539 61.0369987487793 L -11.666000366210938 61.27899932861328 L -11.534479141235352 61.439998626708984 L -11.491999626159668 61.492000579833984 L -11.279000282287598 61.66600036621094 L -11.036999702453613 61.79600143432617 L -10.77400016784668 61.875999450683594 L -10.5 61.90299987792969 L -10.22599983215332 61.875999450683594 L -9.963000297546387 61.79600143432617 L -9.720999717712402 61.66600036621094 L -9.508000373840332 61.492000579833984 L -9.465520858764648 61.439998626708984 L -9.333999633789062 61.27899932861328 L -9.204000473022461 61.0369987487793 L -9.12399959564209 60.77399826049805 L -9.097000122070312 60.5 L -9.12399959564209 60.22600173950195 L -9.204000473022461 59.9630012512207 L -9.333999633789062 59.72100067138672 L -9.508000373840332 59.507999420166016 L -9.720999717712402 59.33399963378906 L -9.963000297546387 59.20399856567383 L -10.22599983215332 59.124000549316406 L -10.239999771118164 59.12267303466797 L -10.5 59.097999572753906 L -10.77400016784668 59.124000549316406 z" fill="none" stroke="rgb(255,0,0)" stroke-width="0.001mm" />
</svg>